HIERARCHY
ROOT root
{
	OFFSET 0.000000 0.000000 0.000000
	CHANNELS 6 Xposition Yposition Zposition Zrotation Yrotation Xrotation
	JOINT lhip
	{
		OFFSET 0.058581 -0.082280 -0.017664
		CHANNELS 3 Zrotation Yrotation Xrotation
		JOINT lknee
		{
			OFFSET 0.043451 -0.386469 0.008037
			CHANNELS 3 Zrotation Yrotation Xrotation
			JOINT lankle
			{
				OFFSET -0.014790 -0.426874 -0.037428
				CHANNELS 3 Zrotation Yrotation Xrotation
				JOINT ltoe
				{
					OFFSET 0.041054 -0.060286 0.122042
					CHANNELS 3 Zrotation Yrotation Xrotation
					End Site
					{
						OFFSET 0.000000 0.000000 0.000000
					}
				}
			}
		}
	}
	JOINT rhip
	{
		OFFSET -0.060310 -0.090513 -0.013543
		CHANNELS 3 Zrotation Yrotation Xrotation
		JOINT rknee
		{
			OFFSET -0.043257 -0.383688 -0.004843
			CHANNELS 3 Zrotation Yrotation Xrotation
			JOINT rankle
			{
				OFFSET 0.019056 -0.420046 -0.034562
				CHANNELS 3 Zrotation Yrotation Xrotation
				JOINT rtoe
				{
					OFFSET -0.034840 -0.062106 0.130323
					CHANNELS 3 Zrotation Yrotation Xrotation
					End Site
					{
						OFFSET 0.000000 0.000000 0.000000
					}
				}
			}
		}
	}
	JOINT lowerback
	{
		OFFSET 0.004439 0.124404 -0.038385
		CHANNELS 3 Zrotation Yrotation Xrotation
		JOINT upperback
		{
			OFFSET 0.004488 0.137956 0.026820
			CHANNELS 3 Zrotation Yrotation Xrotation
			JOINT chest
			{
				OFFSET -0.002265 0.056032 0.002855
				CHANNELS 3 Zrotation Yrotation Xrotation
				JOINT lowerneck
				{
					OFFSET -0.013390 0.211636 -0.033468
					CHANNELS 3 Zrotation Yrotation Xrotation
					JOINT upperneck
					{
						OFFSET 0.010113 0.088937 0.050410
						CHANNELS 3 Zrotation Yrotation Xrotation
						End Site
						{
							OFFSET 0.000000 0.000000 0.000000
						}
					}
				}
				JOINT lclavicle
				{
					OFFSET 0.071702 0.114000 -0.018898
					CHANNELS 3 Zrotation Yrotation Xrotation
					JOINT lshoulder
					{
						OFFSET 0.122921 0.045205 -0.019046
						CHANNELS 3 Zrotation Yrotation Xrotation
						JOINT lelbow
						{
							OFFSET 0.255332 -0.015649 -0.022946
							CHANNELS 3 Zrotation Yrotation Xrotation
							JOINT lwrist
							{
								OFFSET 0.265709 0.012698 -0.007375
								CHANNELS 3 Zrotation Yrotation Xrotation
								End Site
								{
									OFFSET 0.000000 0.000000 0.000000
								}
							}
						}
					}
				}
				JOINT rclavicle
				{
					OFFSET -0.082954 0.112472 -0.023707
					CHANNELS 3 Zrotation Yrotation Xrotation
					JOINT rshoulder
					{
						OFFSET -0.113228 0.046853 -0.008472
						CHANNELS 3 Zrotation Yrotation Xrotation
						JOINT relbow
						{
							OFFSET -0.260127 -0.014369 -0.031269
							CHANNELS 3 Zrotation Yrotation Xrotation
							JOINT rwrist
							{
								OFFSET -0.269108 0.006794 -0.006027
								CHANNELS 3 Zrotation Yrotation Xrotation
								End Site
								{
									OFFSET 0.000000 0.000000 0.000000
								}
							}
						}
					}
				}
			}
		}
	}
}
MOTION
Frames: 8
Frame Time: 0.033333
-2.040623 0.864998 1.007917 39.713231 5.703119 98.676286 2.399302 -5.948675 -15.256998 -7.578353 -1.607307 26.396461 4.802577 11.151653 -19.627743 0.000000 -0.000000 0.000000 -2.340647 0.457469 -9.622387 -0.310172 -0.049433 35.993388 4.915076 -9.091463 -0.545841 0.000000 -0.000000 0.000000 -0.122620 1.758562 13.041272 2.496101 -1.129823 -2.979117 0.574207 -1.992328 1.965847 2.673214 11.620405 -1.929066 -1.858445 12.842457 11.582254 -26.670083 6.381917 -0.687860 -54.007243 -7.374182 6.758435 19.479941 -31.658047 -4.953610 3.110095 -7.577735 -10.596723 29.429044 -3.020728 -1.364092 52.039693 4.951575 16.284967 -20.136879 33.624410 -11.505984 6.031855 7.694966 -14.126786 
-2.017322 0.860094 1.008538 40.095284 5.927955 99.175115 1.415587 -6.363880 -13.894423 -7.318006 -2.589868 25.335891 5.890872 11.587512 -19.532387 0.000000 -0.000000 0.000000 -2.590354 1.978999 -12.598082 -0.378148 -1.169954 40.984486 4.062529 -10.473874 2.434809 0.000000 -0.000000 0.000000 -0.692567 0.869773 13.579063 2.876594 -0.949882 -3.170570 0.626666 -2.318659 1.897476 2.856143 11.880181 -2.190893 -2.017920 13.240984 11.293927 -26.606748 6.254217 -0.612120 -53.194123 -8.162938 6.984519 20.062776 -32.097974 -5.471034 2.639123 -7.491435 -11.063564 29.788662 -3.102978 -1.708150 51.917048 4.668613 17.306549 -20.603089 34.665297 -11.311172 6.210921 7.839766 -14.334133 
-1.994130 0.853669 1.007478 41.055574 6.272031 99.576949 0.863448 -5.787375 -13.208625 -7.260162 -3.771103 25.388872 6.095722 10.458948 -18.514610 0.000000 -0.000000 0.000000 -2.278933 2.942179 -15.632376 -0.944977 -2.662024 45.751497 2.480366 -12.397549 2.042826 0.000000 -0.000000 0.000000 -0.840710 -0.175649 14.170424 3.304830 -1.072924 -3.269178 0.659886 -2.760204 1.893426 2.832553 12.238001 -2.128582 -2.534229 13.219112 11.130539 -26.402314 5.564614 -0.454605 -52.317691 -8.853061 6.779931 20.282511 -32.459933 -6.163424 2.844150 -7.634389 -11.363214 29.536110 -2.821769 -1.518698 52.604921 4.685680 17.744399 -21.400292 35.253392 -11.334463 6.523764 8.056760 -14.273082 
-1.964125 0.843726 1.005776 42.682885 6.618233 99.801634 0.133030 -3.869793 -12.611258 -6.744668 -5.337595 26.203568 5.268435 7.017266 -15.379468 0.000000 -0.000000 0.000000 -1.345899 3.477912 -19.386725 -1.790522 -3.701514 50.570943 1.088633 -13.354266 -2.026392 0.000000 -0.000000 0.000000 -1.080346 -1.589638 16.076638 3.652321 -1.416776 -4.088661 0.750765 -3.190552 1.788229 3.132260 13.456453 -2.266288 -2.596857 12.881959 10.767053 -26.265079 4.854232 -0.388514 -50.950511 -9.810709 6.091099 20.322319 -33.021908 -6.251210 2.867031 -7.518376 -11.902814 29.587302 -2.800218 -1.697480 53.213708 4.334384 17.585282 -21.708281 36.128170 -10.550678 6.570553 8.020406 -14.214677 
-1.945928 0.838558 1.004833 43.840196 6.900733 100.152225 -0.298631 -3.767430 -11.637667 -6.438396 -6.091587 25.888471 5.834239 7.021053 -15.365242 0.000000 -0.000000 0.000000 -0.740599 3.892726 -22.032444 -1.751075 -4.358888 52.454266 1.062404 -13.487320 -3.804571 0.000000 -0.000000 0.000000 -1.173875 -2.290447 16.712579 3.916669 -1.688845 -4.144214 0.894427 -3.705118 1.833211 3.541052 13.925642 -2.389119 -2.778701 13.062333 10.295900 -26.855673 3.842541 0.432725 -49.504341 -10.707568 5.330985 21.109986 -33.150003 -8.041295 2.795987 -7.539747 -11.595077 30.039979 -2.418640 -2.070271 52.868562 3.884411 17.758602 -21.756261 36.145730 -10.726003 6.913368 8.229116 -13.938161 
-1.925506 0.831703 1.003144 45.188881 7.129473 101.528128 -0.098968 -5.660406 -11.755008 -7.917058 -6.523574 25.977351 6.469500 9.926951 -15.915767 0.000000 -0.000000 0.000000 -0.584232 6.590217 -26.815721 -0.628447 -5.956073 54.139224 1.272473 -13.750938 -7.144028 0.000000 -0.000000 0.000000 -1.672988 -3.256999 17.025485 4.438654 -1.242443 -5.194800 0.722655 -4.090626 2.638564 4.043958 14.902202 -3.441727 -2.848833 11.611460 11.420567 -25.405852 3.336713 -1.205141 -49.494206 -12.420171 6.959568 20.369879 -31.616734 -9.169642 3.397480 -7.640524 -10.976061 29.881051 -3.179917 -2.750975 53.766249 3.738281 18.783275 -21.768969 35.868359 -10.101279 6.853335 8.316423 -14.604557 
-1.897505 0.821902 0.999625 46.633801 7.367410 101.574298 -0.973474 -4.083211 -10.691951 -7.185255 -8.465436 27.282182 7.346010 8.114570 -15.073884 0.000000 -0.000000 0.000000 -0.145450 7.448873 -30.038967 -0.306427 -7.107363 54.128692 1.891853 -12.813410 -9.366407 0.000000 -0.000000 0.000000 -1.509935 -4.647402 18.916749 4.433653 -1.154641 -5.956124 0.786687 -4.325843 2.476518 4.031772 15.229270 -3.033274 -2.841215 11.425633 10.535976 -25.193117 2.207779 -1.211011 -48.525548 -13.607621 6.566480 19.932265 -31.139555 -9.576493 3.761693 -7.709412 -11.001327 29.460728 -2.990025 -2.712947 54.103179 2.959701 18.659523 -20.856312 36.426699 -9.704510 6.031189 8.088606 -16.536591 
-1.868501 0.811415 0.993886 47.564880 7.698821 101.790094 -1.876264 -3.559727 -9.051969 -6.776558 -10.079046 27.413303 7.944659 8.357795 -15.054059 0.000000 -0.000000 0.000000 0.071168 8.301441 -34.068925 0.144337 -8.562505 53.519036 2.177425 -12.100318 -11.466585 0.000000 -0.000000 0.000000 -1.373331 -5.693210 20.196054 4.297191 -1.121625 -6.013644 0.876128 -4.511268 2.193342 3.887211 15.671481 -2.806595 -2.544519 11.379022 9.647206 -24.776806 0.925912 -1.086264 -47.928623 -14.487703 6.304266 20.671728 -31.176678 -10.987473 2.712432 -6.970542 -10.672420 29.271310 -2.388886 -2.221586 54.050474 2.339728 18.244218 -20.763623 36.368155 -8.892095 6.801235 8.214166 -15.258095 
